<mxfile host="Electron" agent="Mozilla/5.0 (Windows NT 10.0; Win64; x64) AppleWebKit/537.36 (KHTML, like Gecko) draw.io/26.2.2 Chrome/134.0.6998.178 Electron/35.1.2 Safari/537.36" version="26.2.2">
  <diagram name="Page-1" id="Xy9W31k0IBnq5OeaYYV9">
    <mxGraphModel dx="4080" dy="2523" grid="1" gridSize="10" guides="1" tooltips="1" connect="1" arrows="1" fold="1" page="1" pageScale="1" pageWidth="850" pageHeight="1100" math="0" shadow="0">
      <root>
        <mxCell id="0" />
        <mxCell id="1" parent="0" />
        <mxCell id="gve1bzS9YMtMXWZaobQD-57" value="System" style="shape=umlLifeline;perimeter=lifelinePerimeter;whiteSpace=wrap;html=1;container=1;dropTarget=0;collapsible=0;recursiveResize=0;outlineConnect=0;portConstraint=eastwest;newEdgeStyle={&quot;curved&quot;:0,&quot;rounded&quot;:0};" vertex="1" parent="1">
          <mxGeometry x="650" y="730" width="100" height="1730" as="geometry" />
        </mxCell>
        <mxCell id="gve1bzS9YMtMXWZaobQD-58" value="" style="html=1;points=[[0,0,0,0,5],[0,1,0,0,-5],[1,0,0,0,5],[1,1,0,0,-5]];perimeter=orthogonalPerimeter;outlineConnect=0;targetShapes=umlLifeline;portConstraint=eastwest;newEdgeStyle={&quot;curved&quot;:0,&quot;rounded&quot;:0};" vertex="1" parent="gve1bzS9YMtMXWZaobQD-57">
          <mxGeometry x="45" y="160" width="10" height="1570" as="geometry" />
        </mxCell>
        <mxCell id="gve1bzS9YMtMXWZaobQD-59" value="ForumController" style="shape=umlLifeline;perimeter=lifelinePerimeter;whiteSpace=wrap;html=1;container=1;dropTarget=0;collapsible=0;recursiveResize=0;outlineConnect=0;portConstraint=eastwest;newEdgeStyle={&quot;curved&quot;:0,&quot;rounded&quot;:0};" vertex="1" parent="1">
          <mxGeometry x="850" y="730" width="100" height="1720" as="geometry" />
        </mxCell>
        <mxCell id="gve1bzS9YMtMXWZaobQD-60" value="" style="html=1;points=[[0,0,0,0,5],[0,1,0,0,-5],[1,0,0,0,5],[1,1,0,0,-5]];perimeter=orthogonalPerimeter;outlineConnect=0;targetShapes=umlLifeline;portConstraint=eastwest;newEdgeStyle={&quot;curved&quot;:0,&quot;rounded&quot;:0};" vertex="1" parent="gve1bzS9YMtMXWZaobQD-59">
          <mxGeometry x="45" y="160" width="10" height="1560" as="geometry" />
        </mxCell>
        <mxCell id="gve1bzS9YMtMXWZaobQD-61" value="Database" style="shape=umlLifeline;perimeter=lifelinePerimeter;whiteSpace=wrap;html=1;container=1;dropTarget=0;collapsible=0;recursiveResize=0;outlineConnect=0;portConstraint=eastwest;newEdgeStyle={&quot;curved&quot;:0,&quot;rounded&quot;:0};" vertex="1" parent="1">
          <mxGeometry x="1050" y="730" width="100" height="1720" as="geometry" />
        </mxCell>
        <mxCell id="gve1bzS9YMtMXWZaobQD-62" value="" style="html=1;points=[[0,0,0,0,5],[0,1,0,0,-5],[1,0,0,0,5],[1,1,0,0,-5]];perimeter=orthogonalPerimeter;outlineConnect=0;targetShapes=umlLifeline;portConstraint=eastwest;newEdgeStyle={&quot;curved&quot;:0,&quot;rounded&quot;:0};" vertex="1" parent="gve1bzS9YMtMXWZaobQD-61">
          <mxGeometry x="45" y="160" width="10" height="1560" as="geometry" />
        </mxCell>
        <mxCell id="gve1bzS9YMtMXWZaobQD-63" value="Forum" style="shape=umlLifeline;perimeter=lifelinePerimeter;whiteSpace=wrap;html=1;container=1;dropTarget=0;collapsible=0;recursiveResize=0;outlineConnect=0;portConstraint=eastwest;newEdgeStyle={&quot;curved&quot;:0,&quot;rounded&quot;:0};" vertex="1" parent="1">
          <mxGeometry x="1220" y="730" width="100" height="1720" as="geometry" />
        </mxCell>
        <mxCell id="gve1bzS9YMtMXWZaobQD-64" value="" style="html=1;points=[[0,0,0,0,5],[0,1,0,0,-5],[1,0,0,0,5],[1,1,0,0,-5]];perimeter=orthogonalPerimeter;outlineConnect=0;targetShapes=umlLifeline;portConstraint=eastwest;newEdgeStyle={&quot;curved&quot;:0,&quot;rounded&quot;:0};" vertex="1" parent="gve1bzS9YMtMXWZaobQD-63">
          <mxGeometry x="45" y="160" width="10" height="1560" as="geometry" />
        </mxCell>
        <mxCell id="gve1bzS9YMtMXWZaobQD-65" value="Message" style="shape=umlLifeline;perimeter=lifelinePerimeter;whiteSpace=wrap;html=1;container=1;dropTarget=0;collapsible=0;recursiveResize=0;outlineConnect=0;portConstraint=eastwest;newEdgeStyle={&quot;curved&quot;:0,&quot;rounded&quot;:0};" vertex="1" parent="1">
          <mxGeometry x="1430" y="730" width="100" height="970" as="geometry" />
        </mxCell>
        <mxCell id="gve1bzS9YMtMXWZaobQD-66" value="User" style="shape=umlLifeline;perimeter=lifelinePerimeter;whiteSpace=wrap;html=1;container=1;dropTarget=0;collapsible=0;recursiveResize=0;outlineConnect=0;portConstraint=eastwest;newEdgeStyle={&quot;curved&quot;:0,&quot;rounded&quot;:0};" vertex="1" parent="1">
          <mxGeometry x="470" y="730" width="100" height="1740" as="geometry" />
        </mxCell>
        <mxCell id="gve1bzS9YMtMXWZaobQD-67" value="" style="html=1;points=[[0,0,0,0,5],[0,1,0,0,-5],[1,0,0,0,5],[1,1,0,0,-5]];perimeter=orthogonalPerimeter;outlineConnect=0;targetShapes=umlLifeline;portConstraint=eastwest;newEdgeStyle={&quot;curved&quot;:0,&quot;rounded&quot;:0};" vertex="1" parent="gve1bzS9YMtMXWZaobQD-66">
          <mxGeometry x="45" y="160" width="10" height="1580" as="geometry" />
        </mxCell>
        <mxCell id="gve1bzS9YMtMXWZaobQD-68" value="" style="html=1;verticalAlign=bottom;labelBackgroundColor=none;endArrow=block;endFill=1;rounded=0;" edge="1" parent="1">
          <mxGeometry width="160" relative="1" as="geometry">
            <mxPoint x="530" y="930" as="sourcePoint" />
            <mxPoint x="690" y="930" as="targetPoint" />
          </mxGeometry>
        </mxCell>
        <mxCell id="gve1bzS9YMtMXWZaobQD-69" value="νέα επιβεβαιωμένη αναφορά" style="text;html=1;align=center;verticalAlign=middle;resizable=0;points=[];autosize=1;strokeColor=none;fillColor=none;" vertex="1" parent="1">
          <mxGeometry x="530" y="898" width="180" height="30" as="geometry" />
        </mxCell>
        <mxCell id="gve1bzS9YMtMXWZaobQD-70" value="" style="html=1;verticalAlign=bottom;labelBackgroundColor=none;endArrow=block;endFill=1;rounded=0;" edge="1" parent="1" target="gve1bzS9YMtMXWZaobQD-59">
          <mxGeometry width="160" relative="1" as="geometry">
            <mxPoint x="700" y="990" as="sourcePoint" />
            <mxPoint x="860" y="990" as="targetPoint" />
          </mxGeometry>
        </mxCell>
        <mxCell id="gve1bzS9YMtMXWZaobQD-71" value="detectNewReport(report)" style="text;html=1;align=center;verticalAlign=middle;resizable=0;points=[];autosize=1;strokeColor=none;fillColor=none;" vertex="1" parent="1">
          <mxGeometry x="720" y="960" width="160" height="30" as="geometry" />
        </mxCell>
        <mxCell id="gve1bzS9YMtMXWZaobQD-72" value="" style="html=1;verticalAlign=bottom;labelBackgroundColor=none;endArrow=block;endFill=1;rounded=0;" edge="1" parent="1" target="gve1bzS9YMtMXWZaobQD-63">
          <mxGeometry width="160" relative="1" as="geometry">
            <mxPoint x="900" y="1030" as="sourcePoint" />
            <mxPoint x="1060" y="1030" as="targetPoint" />
          </mxGeometry>
        </mxCell>
        <mxCell id="gve1bzS9YMtMXWZaobQD-73" value="forumExists(report)" style="text;html=1;align=center;verticalAlign=middle;resizable=0;points=[];autosize=1;strokeColor=none;fillColor=none;" vertex="1" parent="1">
          <mxGeometry x="960" y="1000" width="130" height="30" as="geometry" />
        </mxCell>
        <mxCell id="gve1bzS9YMtMXWZaobQD-74" value="alt" style="shape=umlFrame;whiteSpace=wrap;html=1;pointerEvents=0;" vertex="1" parent="1">
          <mxGeometry x="480" y="1050" width="880" height="280" as="geometry" />
        </mxCell>
        <mxCell id="gve1bzS9YMtMXWZaobQD-75" value="[υπάρχει ήδη φόρουμ]" style="text;html=1;align=center;verticalAlign=middle;resizable=0;points=[];autosize=1;strokeColor=none;fillColor=none;" vertex="1" parent="1">
          <mxGeometry x="540" y="1050" width="140" height="30" as="geometry" />
        </mxCell>
        <mxCell id="gve1bzS9YMtMXWZaobQD-76" value="" style="html=1;verticalAlign=bottom;labelBackgroundColor=none;endArrow=block;endFill=1;rounded=0;" edge="1" parent="1">
          <mxGeometry width="160" relative="1" as="geometry">
            <mxPoint x="900" y="1110" as="sourcePoint" />
            <mxPoint x="1270" y="1110" as="targetPoint" />
          </mxGeometry>
        </mxCell>
        <mxCell id="gve1bzS9YMtMXWZaobQD-77" value="linkReportToExisting(report)" style="text;html=1;align=center;verticalAlign=middle;resizable=0;points=[];autosize=1;strokeColor=none;fillColor=none;" vertex="1" parent="1">
          <mxGeometry x="925" y="1078" width="170" height="30" as="geometry" />
        </mxCell>
        <mxCell id="gve1bzS9YMtMXWZaobQD-78" value="" style="endArrow=none;dashed=1;html=1;rounded=0;exitX=0.003;exitY=0.446;exitDx=0;exitDy=0;exitPerimeter=0;entryX=1.001;entryY=0.452;entryDx=0;entryDy=0;entryPerimeter=0;" edge="1" parent="1">
          <mxGeometry width="50" height="50" relative="1" as="geometry">
            <mxPoint x="481.7599999999999" y="1138" as="sourcePoint" />
            <mxPoint x="1360" y="1139.6799999999998" as="targetPoint" />
            <Array as="points">
              <mxPoint x="869.12" y="1140.12" />
            </Array>
          </mxGeometry>
        </mxCell>
        <mxCell id="gve1bzS9YMtMXWZaobQD-79" value="else [Δεν υπάρχει]" style="text;html=1;align=center;verticalAlign=middle;resizable=0;points=[];autosize=1;strokeColor=none;fillColor=none;" vertex="1" parent="1">
          <mxGeometry x="480" y="1138" width="120" height="30" as="geometry" />
        </mxCell>
        <mxCell id="gve1bzS9YMtMXWZaobQD-80" value="" style="html=1;verticalAlign=bottom;labelBackgroundColor=none;endArrow=block;endFill=1;rounded=0;" edge="1" parent="1">
          <mxGeometry width="160" relative="1" as="geometry">
            <mxPoint x="900" y="1189.41" as="sourcePoint" />
            <mxPoint x="1270" y="1189.41" as="targetPoint" />
          </mxGeometry>
        </mxCell>
        <mxCell id="gve1bzS9YMtMXWZaobQD-81" value="createForum(report)" style="text;html=1;align=center;verticalAlign=middle;resizable=0;points=[];autosize=1;strokeColor=none;fillColor=none;" vertex="1" parent="1">
          <mxGeometry x="925" y="1158" width="130" height="30" as="geometry" />
        </mxCell>
        <mxCell id="gve1bzS9YMtMXWZaobQD-82" value="alt" style="shape=umlFrame;whiteSpace=wrap;html=1;pointerEvents=0;" vertex="1" parent="1">
          <mxGeometry x="480" y="1210" width="510" height="90" as="geometry" />
        </mxCell>
        <mxCell id="gve1bzS9YMtMXWZaobQD-83" value="[Αποτυχία δημιουργίας]" style="text;html=1;align=center;verticalAlign=middle;resizable=0;points=[];autosize=1;strokeColor=none;fillColor=none;" vertex="1" parent="1">
          <mxGeometry x="535" y="1210" width="150" height="30" as="geometry" />
        </mxCell>
        <mxCell id="gve1bzS9YMtMXWZaobQD-84" value="" style="html=1;verticalAlign=bottom;labelBackgroundColor=none;endArrow=block;endFill=1;dashed=1;rounded=0;" edge="1" parent="1">
          <mxGeometry width="160" relative="1" as="geometry">
            <mxPoint x="899.5" y="1269.4099999999999" as="sourcePoint" />
            <mxPoint x="530" y="1269.4099999999999" as="targetPoint" />
          </mxGeometry>
        </mxCell>
        <mxCell id="gve1bzS9YMtMXWZaobQD-85" value="showError(&quot;Αποτυχία δημιουργίας φόρουμ&quot;)" style="text;html=1;align=center;verticalAlign=middle;resizable=0;points=[];autosize=1;strokeColor=none;fillColor=none;" vertex="1" parent="1">
          <mxGeometry x="650" y="1238" width="260" height="30" as="geometry" />
        </mxCell>
        <mxCell id="gve1bzS9YMtMXWZaobQD-86" value="end" style="text;html=1;align=center;verticalAlign=middle;resizable=0;points=[];autosize=1;strokeColor=none;fillColor=none;" vertex="1" parent="1">
          <mxGeometry x="480" y="1278" width="40" height="30" as="geometry" />
        </mxCell>
        <mxCell id="gve1bzS9YMtMXWZaobQD-87" value="end" style="text;html=1;align=center;verticalAlign=middle;resizable=0;points=[];autosize=1;strokeColor=none;fillColor=none;" vertex="1" parent="1">
          <mxGeometry x="480" y="1300" width="40" height="30" as="geometry" />
        </mxCell>
        <mxCell id="gve1bzS9YMtMXWZaobQD-88" value="" style="html=1;verticalAlign=bottom;labelBackgroundColor=none;endArrow=block;endFill=1;rounded=0;" edge="1" parent="1" target="gve1bzS9YMtMXWZaobQD-59">
          <mxGeometry width="160" relative="1" as="geometry">
            <mxPoint x="520" y="1400" as="sourcePoint" />
            <mxPoint x="680" y="1400" as="targetPoint" />
          </mxGeometry>
        </mxCell>
        <mxCell id="gve1bzS9YMtMXWZaobQD-89" value="requestForumList()" style="text;html=1;align=center;verticalAlign=middle;resizable=0;points=[];autosize=1;strokeColor=none;fillColor=none;" vertex="1" parent="1">
          <mxGeometry x="550" y="1368" width="120" height="30" as="geometry" />
        </mxCell>
        <mxCell id="gve1bzS9YMtMXWZaobQD-90" value="alt" style="shape=umlFrame;whiteSpace=wrap;html=1;pointerEvents=0;" vertex="1" parent="1">
          <mxGeometry x="480" y="1420" width="680" height="200" as="geometry" />
        </mxCell>
        <mxCell id="gve1bzS9YMtMXWZaobQD-91" value="[Δεν υπάρχουν διαθέσιμα φόρουμ]" style="text;html=1;align=center;verticalAlign=middle;resizable=0;points=[];autosize=1;strokeColor=none;fillColor=none;" vertex="1" parent="1">
          <mxGeometry x="535" y="1418" width="210" height="30" as="geometry" />
        </mxCell>
        <mxCell id="gve1bzS9YMtMXWZaobQD-92" value="" style="html=1;verticalAlign=bottom;labelBackgroundColor=none;endArrow=block;endFill=1;dashed=1;rounded=0;" edge="1" parent="1">
          <mxGeometry width="160" relative="1" as="geometry">
            <mxPoint x="889.5" y="1490" as="sourcePoint" />
            <mxPoint x="520" y="1490.0000000000002" as="targetPoint" />
          </mxGeometry>
        </mxCell>
        <mxCell id="gve1bzS9YMtMXWZaobQD-93" value="showMessage(&quot;Δεν υπάρχουν διαθέσιμα φόρουμ&quot;)" style="text;html=1;align=center;verticalAlign=middle;resizable=0;points=[];autosize=1;strokeColor=none;fillColor=none;" vertex="1" parent="1">
          <mxGeometry x="595" y="1458" width="290" height="30" as="geometry" />
        </mxCell>
        <mxCell id="gve1bzS9YMtMXWZaobQD-94" value="" style="html=1;points=[[0,0,0,0,5],[0,1,0,0,-5],[1,0,0,0,5],[1,1,0,0,-5]];perimeter=orthogonalPerimeter;outlineConnect=0;targetShapes=umlLifeline;portConstraint=eastwest;newEdgeStyle={&quot;curved&quot;:0,&quot;rounded&quot;:0};" vertex="1" parent="1">
          <mxGeometry x="1475" y="890" width="10" height="1550" as="geometry" />
        </mxCell>
        <mxCell id="gve1bzS9YMtMXWZaobQD-95" value="" style="endArrow=none;dashed=1;html=1;rounded=0;exitX=0.009;exitY=0.473;exitDx=0;exitDy=0;exitPerimeter=0;entryX=1.005;entryY=0.461;entryDx=0;entryDy=0;entryPerimeter=0;" edge="1" parent="1" source="gve1bzS9YMtMXWZaobQD-90" target="gve1bzS9YMtMXWZaobQD-90">
          <mxGeometry width="50" height="50" relative="1" as="geometry">
            <mxPoint x="1090" y="1390" as="sourcePoint" />
            <mxPoint x="1140" y="1340" as="targetPoint" />
          </mxGeometry>
        </mxCell>
        <mxCell id="gve1bzS9YMtMXWZaobQD-96" value="else" style="text;html=1;align=center;verticalAlign=middle;resizable=0;points=[];autosize=1;strokeColor=none;fillColor=none;" vertex="1" parent="1">
          <mxGeometry x="475" y="1518" width="50" height="30" as="geometry" />
        </mxCell>
        <mxCell id="gve1bzS9YMtMXWZaobQD-97" value="" style="html=1;verticalAlign=bottom;labelBackgroundColor=none;endArrow=block;endFill=1;rounded=0;" edge="1" parent="1" target="gve1bzS9YMtMXWZaobQD-61">
          <mxGeometry width="160" relative="1" as="geometry">
            <mxPoint x="900" y="1548" as="sourcePoint" />
            <mxPoint x="1060" y="1548" as="targetPoint" />
          </mxGeometry>
        </mxCell>
        <mxCell id="gve1bzS9YMtMXWZaobQD-98" value="getAvailableForums()" style="text;html=1;align=center;verticalAlign=middle;resizable=0;points=[];autosize=1;strokeColor=none;fillColor=none;" vertex="1" parent="1">
          <mxGeometry x="920" y="1518" width="140" height="30" as="geometry" />
        </mxCell>
        <mxCell id="gve1bzS9YMtMXWZaobQD-99" value="" style="html=1;verticalAlign=bottom;labelBackgroundColor=none;endArrow=block;endFill=1;dashed=1;rounded=0;" edge="1" parent="1">
          <mxGeometry width="160" relative="1" as="geometry">
            <mxPoint x="889.5" y="1580" as="sourcePoint" />
            <mxPoint x="520" y="1580.0000000000002" as="targetPoint" />
          </mxGeometry>
        </mxCell>
        <mxCell id="gve1bzS9YMtMXWZaobQD-100" value="showFormList()" style="text;html=1;align=center;verticalAlign=middle;resizable=0;points=[];autosize=1;strokeColor=none;fillColor=none;" vertex="1" parent="1">
          <mxGeometry x="695" y="1548" width="110" height="30" as="geometry" />
        </mxCell>
        <mxCell id="gve1bzS9YMtMXWZaobQD-101" value="end" style="text;html=1;align=center;verticalAlign=middle;resizable=0;points=[];autosize=1;strokeColor=none;fillColor=none;" vertex="1" parent="1">
          <mxGeometry x="480" y="1588" width="40" height="30" as="geometry" />
        </mxCell>
        <mxCell id="gve1bzS9YMtMXWZaobQD-102" value="" style="html=1;verticalAlign=bottom;labelBackgroundColor=none;endArrow=block;endFill=1;rounded=0;" edge="1" parent="1" target="gve1bzS9YMtMXWZaobQD-59">
          <mxGeometry width="160" relative="1" as="geometry">
            <mxPoint x="525" y="1680" as="sourcePoint" />
            <mxPoint x="685" y="1680" as="targetPoint" />
          </mxGeometry>
        </mxCell>
        <mxCell id="gve1bzS9YMtMXWZaobQD-103" value="selectForum(forumId)" style="edgeLabel;html=1;align=center;verticalAlign=middle;resizable=0;points=[];" vertex="1" connectable="0" parent="gve1bzS9YMtMXWZaobQD-102">
          <mxGeometry x="-0.5869" y="10" relative="1" as="geometry">
            <mxPoint as="offset" />
          </mxGeometry>
        </mxCell>
        <mxCell id="gve1bzS9YMtMXWZaobQD-104" value="" style="html=1;verticalAlign=bottom;labelBackgroundColor=none;endArrow=block;endFill=1;rounded=0;" edge="1" parent="1" target="gve1bzS9YMtMXWZaobQD-94">
          <mxGeometry width="160" relative="1" as="geometry">
            <mxPoint x="910" y="1720" as="sourcePoint" />
            <mxPoint x="1070" y="1720" as="targetPoint" />
          </mxGeometry>
        </mxCell>
        <mxCell id="gve1bzS9YMtMXWZaobQD-105" value="getMessageByForum(forumId)" style="text;html=1;align=center;verticalAlign=middle;resizable=0;points=[];autosize=1;strokeColor=none;fillColor=none;" vertex="1" parent="1">
          <mxGeometry x="1085" y="1688" width="190" height="30" as="geometry" />
        </mxCell>
        <mxCell id="gve1bzS9YMtMXWZaobQD-106" value="" style="html=1;verticalAlign=bottom;labelBackgroundColor=none;endArrow=block;endFill=1;dashed=1;rounded=0;" edge="1" parent="1">
          <mxGeometry width="160" relative="1" as="geometry">
            <mxPoint x="889.5" y="1780" as="sourcePoint" />
            <mxPoint x="520" y="1780.0000000000002" as="targetPoint" />
          </mxGeometry>
        </mxCell>
        <mxCell id="gve1bzS9YMtMXWZaobQD-107" value="displayMessages(list)" style="text;html=1;align=center;verticalAlign=middle;resizable=0;points=[];autosize=1;strokeColor=none;fillColor=none;" vertex="1" parent="1">
          <mxGeometry x="700" y="1748" width="140" height="30" as="geometry" />
        </mxCell>
        <mxCell id="gve1bzS9YMtMXWZaobQD-108" value="" style="html=1;verticalAlign=bottom;labelBackgroundColor=none;endArrow=block;endFill=1;rounded=0;" edge="1" parent="1" target="gve1bzS9YMtMXWZaobQD-59">
          <mxGeometry width="160" relative="1" as="geometry">
            <mxPoint x="525" y="1860" as="sourcePoint" />
            <mxPoint x="685" y="1860" as="targetPoint" />
          </mxGeometry>
        </mxCell>
        <mxCell id="gve1bzS9YMtMXWZaobQD-109" value="sendMessage(content)" style="edgeLabel;html=1;align=center;verticalAlign=middle;resizable=0;points=[];" vertex="1" connectable="0" parent="gve1bzS9YMtMXWZaobQD-108">
          <mxGeometry x="-0.5461" y="11" relative="1" as="geometry">
            <mxPoint x="1" as="offset" />
          </mxGeometry>
        </mxCell>
        <mxCell id="gve1bzS9YMtMXWZaobQD-110" value="" style="html=1;verticalAlign=bottom;labelBackgroundColor=none;endArrow=block;endFill=1;rounded=0;" edge="1" parent="1">
          <mxGeometry width="160" relative="1" as="geometry">
            <mxPoint x="910" y="1920" as="sourcePoint" />
            <mxPoint x="1475" y="1920" as="targetPoint" />
          </mxGeometry>
        </mxCell>
        <mxCell id="gve1bzS9YMtMXWZaobQD-111" value="create(content)" style="edgeLabel;html=1;align=center;verticalAlign=middle;resizable=0;points=[];" vertex="1" connectable="0" parent="gve1bzS9YMtMXWZaobQD-110">
          <mxGeometry x="-0.0325" y="8" relative="1" as="geometry">
            <mxPoint as="offset" />
          </mxGeometry>
        </mxCell>
        <mxCell id="gve1bzS9YMtMXWZaobQD-112" value="" style="html=1;verticalAlign=bottom;labelBackgroundColor=none;endArrow=block;endFill=1;rounded=0;" edge="1" parent="1" target="gve1bzS9YMtMXWZaobQD-61">
          <mxGeometry width="160" relative="1" as="geometry">
            <mxPoint x="900" y="2010" as="sourcePoint" />
            <mxPoint x="1060" y="2010" as="targetPoint" />
          </mxGeometry>
        </mxCell>
        <mxCell id="gve1bzS9YMtMXWZaobQD-113" value="saveMessage(message)" style="edgeLabel;html=1;align=center;verticalAlign=middle;resizable=0;points=[];" vertex="1" connectable="0" parent="gve1bzS9YMtMXWZaobQD-112">
          <mxGeometry x="0.0526" y="7" relative="1" as="geometry">
            <mxPoint as="offset" />
          </mxGeometry>
        </mxCell>
        <mxCell id="gve1bzS9YMtMXWZaobQD-114" value="alt" style="shape=umlFrame;whiteSpace=wrap;html=1;pointerEvents=0;" vertex="1" parent="1">
          <mxGeometry x="480" y="2050" width="520" height="200" as="geometry" />
        </mxCell>
        <mxCell id="gve1bzS9YMtMXWZaobQD-115" value="[Αποτυχία αποθήκευσης]" style="text;html=1;align=center;verticalAlign=middle;resizable=0;points=[];autosize=1;strokeColor=none;fillColor=none;" vertex="1" parent="1">
          <mxGeometry x="535" y="2050" width="160" height="30" as="geometry" />
        </mxCell>
        <mxCell id="gve1bzS9YMtMXWZaobQD-116" value="" style="html=1;verticalAlign=bottom;labelBackgroundColor=none;endArrow=block;endFill=1;dashed=1;rounded=0;" edge="1" parent="1">
          <mxGeometry width="160" relative="1" as="geometry">
            <mxPoint x="894.5" y="2120" as="sourcePoint" />
            <mxPoint x="525" y="2120" as="targetPoint" />
          </mxGeometry>
        </mxCell>
        <mxCell id="gve1bzS9YMtMXWZaobQD-117" value="showError(&quot;Το μήνυμα δεν αποθηκεύτηκε. Προσπαθήστε ξανά.&quot;)" style="edgeLabel;html=1;align=center;verticalAlign=middle;resizable=0;points=[];" vertex="1" connectable="0" parent="gve1bzS9YMtMXWZaobQD-116">
          <mxGeometry x="-0.4141" y="-10" relative="1" as="geometry">
            <mxPoint x="-51" as="offset" />
          </mxGeometry>
        </mxCell>
        <mxCell id="gve1bzS9YMtMXWZaobQD-118" value="" style="endArrow=none;dashed=1;html=1;rounded=0;exitX=0.014;exitY=0.492;exitDx=0;exitDy=0;exitPerimeter=0;entryX=0.995;entryY=0.492;entryDx=0;entryDy=0;entryPerimeter=0;" edge="1" parent="1" source="gve1bzS9YMtMXWZaobQD-114" target="gve1bzS9YMtMXWZaobQD-114">
          <mxGeometry width="50" height="50" relative="1" as="geometry">
            <mxPoint x="1130" y="2020" as="sourcePoint" />
            <mxPoint x="1180" y="1970" as="targetPoint" />
          </mxGeometry>
        </mxCell>
        <mxCell id="gve1bzS9YMtMXWZaobQD-119" value="else" style="text;html=1;align=center;verticalAlign=middle;resizable=0;points=[];autosize=1;strokeColor=none;fillColor=none;" vertex="1" parent="1">
          <mxGeometry x="475" y="2158" width="50" height="30" as="geometry" />
        </mxCell>
        <mxCell id="gve1bzS9YMtMXWZaobQD-120" value="" style="html=1;verticalAlign=bottom;labelBackgroundColor=none;endArrow=block;endFill=1;dashed=1;rounded=0;" edge="1" parent="1">
          <mxGeometry width="160" relative="1" as="geometry">
            <mxPoint x="894.5" y="2200" as="sourcePoint" />
            <mxPoint x="525" y="2200" as="targetPoint" />
          </mxGeometry>
        </mxCell>
        <mxCell id="gve1bzS9YMtMXWZaobQD-121" value="updateMessageList(message)" style="edgeLabel;html=1;align=center;verticalAlign=middle;resizable=0;points=[];" vertex="1" connectable="0" parent="gve1bzS9YMtMXWZaobQD-120">
          <mxGeometry x="-0.4141" y="-10" relative="1" as="geometry">
            <mxPoint x="-51" as="offset" />
          </mxGeometry>
        </mxCell>
        <mxCell id="gve1bzS9YMtMXWZaobQD-122" value="end" style="text;html=1;align=center;verticalAlign=middle;resizable=0;points=[];autosize=1;strokeColor=none;fillColor=none;" vertex="1" parent="1">
          <mxGeometry x="480" y="2218" width="40" height="30" as="geometry" />
        </mxCell>
      </root>
    </mxGraphModel>
  </diagram>
</mxfile>
